<svg width="146" height="190" viewBox="0 0 146 190" fill="none" xmlns="http://www.w3.org/2000/svg">
<path d="M73.0084 165.268C111.937 165.268 143.496 133.804 143.496 94.9916C143.496 56.1792 111.937 24.7156 73.0084 24.7156C34.0793 24.7156 2.521 56.1792 2.521 94.9916C2.521 133.804 34.0793 165.268 73.0084 165.268Z" stroke="#E20613" stroke-width="3" stroke-miterlimit="10"/>
<path d="M40.2017 0V190" stroke="#E20613" stroke-width="6" stroke-miterlimit="10"/>
<path d="M59.0924 0V190" stroke="#E20613" stroke-width="6" stroke-miterlimit="10"/>
<path d="M42.8235 41.5725C47.7311 41.3714 51.9664 41.4384 55.2941 41.5725C60.7593 41.6894 66.2059 42.2498 71.5798 43.2481C75.589 43.7682 79.4943 44.8984 83.1597 46.5994C86.3651 48.2402 89.2688 50.41 91.7479 53.017C94.7423 56.0054 96.953 59.6827 98.1849 63.7243C99.019 66.3476 99.3106 69.1123 99.042 71.8511C98.2531 76.9881 95.6698 81.6823 91.7479 85.1054C89.0118 87.687 85.8058 89.7232 82.3025 91.1042C78.6157 92.6755 74.7115 93.6811 70.7227 94.0868C61.3017 95.1485 51.7907 95.1485 42.3698 94.0868" stroke="#E20613" stroke-width="6" stroke-miterlimit="10"/>
<path d="M63.1093 95.243L109.143 155.398" stroke="#E20613" stroke-width="7" stroke-miterlimit="10"/>
</svg>
